<svg width="177" height="163" viewBox="0 0 177 163" fill="none" xmlns="http://www.w3.org/2000/svg">
  <g filter="url(#filter0_d_0_260)">
    <rect x="12" y="6" width="153" height="139" rx="2.4" fill="white" />
  </g>
  <rect x="21.5376" y="15.5862" width="135.514" height="119.828" fill="#FAFAFA" stroke="#E5E9EA" stroke-width="0.6" />
  <rect x="21.5376" y="75.5" width="135.514" height="0.468076" fill="#E5E9EA" />
  <rect x="21.5376" y="86.7338" width="135.514" height="0.468076" fill="#E5E9EA" />
  <rect x="21.5376" y="97.9677" width="135.514" height="0.468076" fill="#E5E9EA" />
  <rect x="21.5376" y="109.201" width="135.514" height="0.468076" fill="#E5E9EA" />
  <rect x="21.5376" y="30.5646" width="135.514" height="0.468076" fill="#E5E9EA" />
  <rect x="21.5376" y="19.3308" width="135.514" height="0.468076" fill="#E5E9EA" />
  <rect x="21.5376" y="41.7985" width="135.514" height="0.468076" fill="#E5E9EA" />
  <rect x="21.5376" y="53.0323" width="135.514" height="0.468076" fill="#E5E9EA" />
  <rect x="21.5376" y="64.2661" width="135.514" height="0.468076" fill="#E5E9EA" />
  <rect x="21.5376" y="120.435" width="135.514" height="0.468076" fill="#E5E9EA" />
  <rect x="21.5376" y="131.669" width="135.514" height="0.468076" fill="#E5E9EA" />
  <path d="M25.1143 75.5H43.3948V102.457C43.3948 104.114 42.0516 105.457 40.3948 105.457H28.1143C26.4574 105.457 25.1143 104.114 25.1143 102.457V75.5Z" fill="#242D52" />
  <path d="M25.1143 75.5H43.3948V94.9677C43.3948 96.6245 42.0516 97.9677 40.3948 97.9677H28.1143C26.4574 97.9677 25.1143 96.6245 25.1143 94.9677V75.5Z" fill="#F3603C" />
  <path d="M52.9326 75.3428H71.2131V54.9338C71.2131 53.277 69.87 51.9338 68.2131 51.9338H55.9326C54.2758 51.9338 52.9326 53.277 52.9326 54.9338V75.3428Z" fill="#F3603C" />
  <path d="M52.9326 75.3428H71.2131V106.052C71.2131 107.708 69.87 109.052 68.2131 109.052H55.9326C54.2758 109.052 52.9326 107.708 52.9326 106.052V75.3428Z" fill="#242D52" />
  <path d="M107.376 75.4999H125.657V33.3648C125.657 31.708 124.314 30.3648 122.657 30.3648H110.376C108.72 30.3648 107.376 31.708 107.376 33.3648V75.4999Z" fill="#242D52" />
  <path d="M107.376 75.4999H125.657V44.6486C125.657 42.9917 124.314 41.6486 122.657 41.6486H110.376C108.72 41.6486 107.376 42.9917 107.376 44.6486V75.4999Z" fill="#F3603C" />
  <path d="M135.195 75.5H153.475V110.046C153.475 111.703 152.132 113.046 150.475 113.046H138.195C136.538 113.046 135.195 111.703 135.195 110.046V75.5Z" fill="#242D52" />
  <path d="M135.195 75.5H153.475V102.537C153.475 104.194 152.132 105.537 150.475 105.537H138.195C136.538 105.537 135.195 104.194 135.195 102.537V75.5Z" fill="#F3603C" />
  <path d="M79.9556 75.5H98.2361V128.819C98.2361 130.476 96.8929 131.819 95.2361 131.819H82.9556C81.2987 131.819 79.9556 130.476 79.9556 128.819V75.5Z" fill="#F3603C" />
  <path d="M79.9556 75.5H98.2361V95.0276C98.2361 96.6844 96.8929 98.0276 95.2361 98.0276H82.9556C81.2987 98.0276 79.9556 96.6844 79.9556 95.0276V75.5Z" fill="#242D52" />
  <defs>
    <filter id="filter0_d_0_260" x="0" y="0" width="177" height="163" filterUnits="userSpaceOnUse" color-interpolation-filters="sRGB">
      <feFlood flood-opacity="0" result="BackgroundImageFix" />
      <feColorMatrix in="SourceAlpha" type="matrix" values="0 0 0 0 0 0 0 0 0 0 0 0 0 0 0 0 0 0 127 0" result="hardAlpha" />
      <feOffset dy="6" />
      <feGaussianBlur stdDeviation="6" />
      <feColorMatrix type="matrix" values="0 0 0 0 0.311766 0 0 0 0 0.336514 0 0 0 0 0.386011 0 0 0 0.03 0" />
      <feBlend mode="normal" in2="BackgroundImageFix" result="effect1_dropShadow_0_260" />
      <feBlend mode="normal" in="SourceGraphic" in2="effect1_dropShadow_0_260" result="shape" />
    </filter>
  </defs>
</svg>