<svg width="177" height="163" viewBox="0 0 177 163" fill="none" xmlns="http://www.w3.org/2000/svg">
  <g filter="url(#filter0_d_0_292)">
    <rect x="12" y="6" width="153" height="139" rx="2.4" fill="white" />
  </g>
  <path d="M88.6987 39.569C108.351 39.5691 124.387 55.5982 124.387 75.4996C124.387 95.4012 108.351 111.431 88.6987 111.431C69.046 111.431 53.0103 95.4013 53.0103 75.4996C53.0105 55.5981 69.0461 39.569 88.6987 39.569Z" stroke="white" stroke-width="24" />
  <path d="M89.3149 27.5729C102.261 27.7377 113.963 33.0877 122.461 41.651L113.945 50.1041C120.403 56.6119 124.387 65.5709 124.387 75.4996H136.387L136.383 76.1198C136.22 89.0877 130.931 100.814 122.461 109.348L113.945 100.896C107.466 107.425 98.5531 111.431 88.6987 111.431V123.431L88.0825 123.427C75.1363 123.263 63.4337 117.912 54.9351 109.348L63.4526 100.896C56.9941 94.3883 53.0103 85.4286 53.0103 75.4996H41.0103C41.0104 62.286 46.3305 50.3213 54.9351 41.651L63.4526 50.1041C69.9318 43.5756 78.8443 39.569 88.6987 39.569V27.569L89.3149 27.5729Z" stroke="#F3603C" stroke-width="24" stroke-dasharray="301.2" />
  <path d="M89.3149 27.5729C102.261 27.7377 113.963 33.0877 122.461 41.651L113.945 50.1041C120.403 56.6119 124.387 65.5709 124.387 75.4996H136.387L136.383 76.1198C136.22 89.0877 130.931 100.814 122.461 109.348L113.945 100.896C107.466 107.425 98.5531 111.431 88.6987 111.431V123.431L88.0825 123.427C75.1363 123.263 63.4337 117.912 54.9351 109.348L63.4526 100.896C56.9941 94.3883 53.0103 85.4286 53.0103 75.4996H41.0103C41.0104 62.286 46.3305 50.3213 54.9351 41.651L63.4526 50.1041C69.9318 43.5756 78.8443 39.569 88.6987 39.569V27.569L89.3149 27.5729Z" stroke="#242D52" stroke-width="24" stroke-dasharray="204" />
  <defs>
    <filter id="filter0_d_0_292" x="0" y="0" width="177" height="163" filterUnits="userSpaceOnUse" color-interpolation-filters="sRGB">
      <feFlood flood-opacity="0" result="BackgroundImageFix" />
      <feColorMatrix in="SourceAlpha" type="matrix" values="0 0 0 0 0 0 0 0 0 0 0 0 0 0 0 0 0 0 127 0" result="hardAlpha" />
      <feOffset dy="6" />
      <feGaussianBlur stdDeviation="6" />
      <feColorMatrix type="matrix" values="0 0 0 0 0.311766 0 0 0 0 0.336514 0 0 0 0 0.386011 0 0 0 0.03 0" />
      <feBlend mode="normal" in2="BackgroundImageFix" result="effect1_dropShadow_0_292" />
      <feBlend mode="normal" in="SourceGraphic" in2="effect1_dropShadow_0_292" result="shape" />
    </filter>
  </defs>
</svg>