<svg width="32" height="32" viewBox="0 0 32 32" fill="none" xmlns="http://www.w3.org/2000/svg">
  <path d="M16 0C7.164 0 0 7.16267 0 16C0 22.7787 4.21733 28.568 10.1693 30.8987C10.0293 29.6333 9.90267 27.692 10.2253 26.3107C10.516 25.0613 12.1013 18.3573 12.1013 18.3573C12.1013 18.3573 11.6227 17.3987 11.6227 15.9813C11.6227 13.7573 12.912 12.096 14.5173 12.096C15.8813 12.096 16.5413 13.1213 16.5413 14.3493C16.5413 15.7213 15.668 17.7733 15.216 19.676C14.8387 21.268 16.0147 22.568 17.5853 22.568C20.4293 22.568 22.6147 19.5693 22.6147 15.2413C22.6147 11.4107 19.8627 8.732 15.932 8.732C11.38 8.732 8.708 12.1467 8.708 15.6747C8.708 17.0493 9.23733 18.5253 9.89867 19.3253C10.0293 19.484 10.048 19.624 10.0093 19.7853L9.56533 21.5987C9.49467 21.892 9.33333 21.9547 9.02933 21.8133C7.03067 20.8827 5.78133 17.9613 5.78133 15.6147C5.78133 10.568 9.448 5.932 16.3533 5.932C21.904 5.932 26.2173 9.888 26.2173 15.1733C26.2173 20.688 22.7413 25.1253 17.9147 25.1253C16.2933 25.1253 14.7693 24.284 14.248 23.288L13.2507 27.092C12.8893 28.4827 11.9147 30.2253 11.2613 31.2867C12.76 31.7493 14.3507 32 16 32C24.836 32 32 24.836 32 16C32 7.16267 24.836 0 16 0Z" fill="white" />
</svg>