<svg width="32" height="27" viewBox="0 0 32 27" fill="none" xmlns="http://www.w3.org/2000/svg">
  <path d="M32 3.32534C30.8227 3.85594 29.5573 4.21328 28.2293 4.37436C29.5853 3.55003 30.6267 2.24384 31.116 0.687236C29.848 1.45065 28.4427 2.00561 26.9467 2.30475C25.7507 1.00939 24.0427 0.199951 22.1547 0.199951C17.916 0.199951 14.8013 4.21464 15.7587 8.38227C10.304 8.10479 5.46667 5.4518 2.228 1.41952C0.508 4.41496 1.336 8.33354 4.25867 10.3179C3.184 10.2827 2.17067 9.98354 1.28667 9.48408C1.21467 12.5716 3.39467 15.4601 6.552 16.103C5.628 16.3575 4.616 16.4171 3.58667 16.2167C4.42133 18.8643 6.84533 20.7904 9.72 20.8446C6.96 23.0414 3.48267 24.0228 0 23.6059C2.90533 25.4968 6.35733 26.6 10.064 26.6C22.2533 26.6 29.14 16.149 28.724 6.77559C30.0067 5.83486 31.12 4.66131 32 3.32534Z" fill="white" />
</svg>